<svg width="260" height="260" viewBox="0 0 260 260" fill="none" xmlns="http://www.w3.org/2000/svg">
<g clip-path="url(#clip0)">
<path d="M179.684 197.326H103.084C85.3244 197.326 70.8844 182.552 70.8844 164.404V32.9217C70.8844 14.7739 85.3344 0 103.084 0H179.674C197.434 0 211.874 14.7739 211.874 32.9217V164.404C211.884 182.552 197.434 197.326 179.684 197.326ZM103.084 20.4483C96.3544 20.4483 90.8844 26.0409 90.8844 32.9217V164.404C90.8844 171.285 96.3544 176.878 103.084 176.878H179.674C186.404 176.878 191.874 171.285 191.874 164.404V32.9217C191.874 26.0409 186.404 20.4483 179.674 20.4483H103.084V20.4483Z" fill="#426BD4"/>
<path d="M132.384 260L131.384 156.91V124.949C131.384 118.477 126.254 113.232 119.924 113.232C114.174 113.232 109.324 117.588 108.564 123.405L103.884 159.497L71.8844 140.071L70.8844 83.838L51.0344 126.841C47.7144 134.049 47.0944 142.249 49.2944 149.886L80.8844 259.693L132.384 260Z" fill="#EFF1F8"/>
</g>
<defs>
<clipPath id="clip0">
<rect width="260" height="260" fill="white"/>
</clipPath>
</defs>
</svg>
