<svg width="411" height="439" viewBox="0 0 411 439" fill="none" xmlns="http://www.w3.org/2000/svg">
<g clip-path="url(#clip0)">
<path d="M10 232.9V60.1C10 32.43 32.43 10 60.1 10H350.23C377.9 10 400.33 32.43 400.33 60.1V232.9C400.33 260.57 377.9 283 350.23 283H60.1C32.43 283 10 260.57 10 232.9Z" fill="#EFF1F8"/>
<path d="M350.23 293H60.1C26.96 293 0 266.04 0 232.9V60.1C0 26.96 26.96 0 60.1 0H350.23C383.37 0 410.33 26.96 410.33 60.1V232.9C410.32 266.04 383.36 293 350.23 293ZM60.1 20C37.99 20 20 37.99 20 60.1V232.9C20 255.01 37.99 273 60.1 273H350.23C372.34 273 390.33 255.01 390.33 232.9V60.1C390.33 37.99 372.34 20 350.23 20H60.1Z" fill="#D0D2E0"/>
<path d="M243.46 377H166.87C149.11 377 134.67 362.55 134.67 344.8V216.2C134.67 198.44 149.12 184 166.87 184H243.46C261.22 184 275.66 198.45 275.66 216.2V344.8C275.66 362.55 261.22 377 243.46 377Z" fill="white"/>
<path d="M243.46 377H166.87C149.11 377 134.67 362.55 134.67 344.8V216.2C134.67 198.44 149.12 184 166.87 184H243.46C261.22 184 275.66 198.45 275.66 216.2V344.8C275.66 362.55 261.22 377 243.46 377ZM166.87 204C160.14 204 154.67 209.47 154.67 216.2V344.8C154.67 351.53 160.14 357 166.87 357H243.46C250.19 357 255.66 351.53 255.66 344.8V216.2C255.66 209.47 250.19 204 243.46 204H166.87Z" fill="#426BD4"/>
<path d="M197.27 438.3L196.27 337.47V306.21C196.27 299.88 191.14 294.75 184.81 294.75C179.06 294.75 174.21 299.01 173.45 304.7L168.77 340L134.77 318V269L115.92 308.06C112.6 315.11 111.98 323.13 114.18 330.6L145.77 438L197.27 438.3Z" fill="#D0D2E0"/>
</g>
<defs>
<clipPath id="clip0">
<rect width="410.32" height="438.3" fill="white"/>
</clipPath>
</defs>
</svg>
